<?xml version="1.0" standalone="no"?>
<!DOCTYPE svg PUBLIC "-//W3C//DTD SVG 20010904//EN"
 "http://www.w3.org/TR/2001/REC-SVG-20010904/DTD/svg10.dtd">
<svg version="1.0" xmlns="http://www.w3.org/2000/svg"
 width="1920.000000pt" height="1920.000000pt" viewBox="0 0 1920.000000 1920.000000"
 preserveAspectRatio="xMidYMid meet">
<metadata>
Created by potrace 1.16, written by Peter Selinger 2001-2019
</metadata>
<g transform="translate(0.000000,1920.000000) scale(0.100000,-0.100000)"
fill="#FF0000" stroke="none">
<path d="M10370 13974 c-47 -7 -107 -13 -135 -14 -27 0 -68 -5 -90 -10 -22 -6
-80 -17 -130 -25 -98 -16 -155 -29 -225 -51 -25 -8 -54 -14 -65 -14 -11 0 -33
-7 -49 -15 -15 -8 -35 -15 -42 -15 -17 0 -126 -36 -171 -56 -17 -8 -36 -14
-43 -14 -7 0 -24 -7 -38 -15 -15 -8 -54 -25 -87 -39 -72 -30 -293 -141 -355
-180 -69 -43 -124 -80 -130 -87 -3 -4 -21 -11 -40 -16 -35 -9 -87 0 -120 21
-64 42 -203 110 -335 166 -27 11 -62 27 -77 35 -14 8 -32 15 -40 15 -7 0 -26
7 -41 15 -15 8 -43 17 -63 21 -19 3 -37 10 -39 15 -3 4 -26 11 -52 15 -25 4
-58 13 -72 20 -14 8 -35 14 -47 14 -11 0 -40 7 -65 15 -24 7 -93 23 -154 35
-60 11 -130 25 -155 30 -25 6 -103 15 -175 20 -71 5 -146 14 -165 20 -46 13
-584 13 -630 0 -19 -6 -91 -15 -160 -20 -69 -4 -145 -13 -170 -19 -25 -6 -74
-15 -110 -21 -130 -20 -186 -32 -215 -45 -16 -7 -51 -16 -77 -19 -26 -4 -50
-11 -53 -15 -2 -5 -25 -12 -50 -15 -24 -4 -47 -11 -50 -16 -3 -5 -26 -12 -50
-16 -25 -3 -45 -10 -45 -14 0 -5 -15 -12 -32 -15 -18 -4 -44 -13 -58 -20 -14
-7 -50 -23 -80 -35 -92 -38 -264 -123 -278 -137 -7 -7 -17 -13 -22 -13 -8 0
-62 -31 -166 -95 -59 -36 -119 -80 -127 -92 -4 -7 -13 -13 -18 -13 -6 0 -16
-6 -23 -12 -7 -7 -33 -29 -56 -48 -24 -19 -52 -43 -62 -52 -10 -10 -20 -18
-22 -18 -15 0 -226 -228 -275 -296 -13 -19 -28 -34 -33 -34 -4 0 -8 -7 -8 -15
0 -9 -7 -18 -15 -21 -8 -4 -15 -12 -15 -18 0 -7 -8 -21 -17 -32 -23 -26 -41
-53 -54 -84 -5 -13 -13 -27 -17 -30 -24 -18 -152 -283 -152 -314 0 -8 -4 -17
-9 -21 -5 -3 -13 -20 -16 -38 -4 -17 -13 -45 -20 -62 -20 -46 -41 -132 -74
-300 -19 -96 -41 -312 -41 -406 0 -100 33 -410 49 -450 4 -13 12 -48 16 -77 4
-30 13 -66 21 -80 8 -15 14 -36 14 -47 0 -11 7 -29 15 -39 8 -11 15 -30 15
-42 0 -12 7 -35 15 -51 8 -15 34 -71 59 -123 59 -123 98 -193 114 -203 6 -4
12 -12 12 -18 0 -5 4 -15 10 -22 43 -53 60 -76 60 -81 0 -3 8 -14 18 -24 9
-10 31 -35 47 -56 79 -99 239 -266 255 -266 5 0 10 -7 10 -15 0 -8 5 -15 11
-15 9 0 157 -118 189 -150 3 -3 25 -19 50 -35 25 -16 47 -32 50 -35 15 -15 71
-50 79 -50 6 0 14 -6 18 -12 8 -14 15 -18 103 -70 30 -17 57 -34 60 -37 7 -8
41 -29 70 -43 14 -7 27 -16 30 -20 3 -4 17 -12 30 -17 14 -6 39 -19 55 -29 17
-10 71 -40 120 -67 50 -26 92 -51 95 -55 3 -4 20 -11 38 -15 17 -3 32 -11 32
-16 0 -5 12 -12 27 -15 15 -4 34 -13 41 -21 7 -7 22 -13 33 -13 11 0 22 -7 25
-15 4 -8 11 -15 16 -15 6 0 32 -10 57 -21 25 -12 60 -28 76 -35 38 -16 108
-46 160 -68 57 -25 106 -47 137 -63 14 -7 33 -13 41 -13 8 0 20 -6 26 -13 6
-8 29 -19 51 -26 22 -6 40 -16 40 -21 0 -6 11 -10 24 -10 13 0 29 -7 36 -15 7
-8 22 -15 34 -15 11 -1 39 -9 61 -20 22 -11 45 -19 52 -20 10 0 52 -19 93 -42
8 -4 22 -11 30 -14 8 -3 28 -12 43 -20 16 -7 33 -14 39 -14 10 0 65 -24 128
-55 14 -7 37 -15 53 -19 15 -3 27 -11 27 -16 0 -6 7 -10 16 -10 9 0 38 -10 63
-21 25 -12 62 -29 81 -37 19 -8 42 -19 50 -23 8 -4 60 -31 115 -59 123 -62
208 -109 215 -118 3 -4 23 -16 44 -27 22 -11 44 -24 51 -30 6 -5 26 -21 45
-34 75 -52 248 -226 256 -257 3 -13 10 -24 15 -24 5 0 20 -26 35 -57 14 -32
30 -67 35 -78 34 -74 49 -286 28 -399 -13 -70 -50 -199 -60 -206 -3 -3 -10
-16 -14 -30 -4 -14 -13 -32 -20 -40 -7 -8 -16 -25 -19 -37 -4 -13 -12 -23 -17
-23 -5 0 -9 -6 -9 -13 0 -7 -8 -22 -18 -33 -10 -10 -21 -27 -25 -36 -3 -10
-11 -18 -17 -18 -5 0 -10 -4 -10 -9 0 -12 -119 -131 -131 -131 -5 0 -9 -7 -9
-15 0 -8 -6 -15 -14 -15 -8 0 -16 -3 -18 -7 -1 -5 -23 -21 -48 -38 -25 -16
-47 -33 -50 -36 -6 -9 -99 -60 -170 -94 -30 -15 -63 -31 -72 -36 -48 -24 -220
-74 -348 -101 -146 -30 -524 -32 -640 -4 -121 30 -241 64 -294 82 -53 19 -286
134 -308 153 -7 6 -51 40 -98 75 -75 56 -203 180 -267 258 -35 43 -118 169
-148 224 -27 51 -27 52 -53 38 -15 -8 -32 -14 -38 -14 -7 0 -14 -7 -18 -15 -3
-8 -10 -15 -16 -15 -14 0 -72 -41 -83 -57 -4 -7 -15 -13 -22 -13 -8 0 -15 -4
-15 -9 0 -5 -13 -14 -29 -21 -16 -6 -32 -18 -35 -26 -3 -8 -12 -14 -20 -14 -8
0 -16 -3 -18 -7 -4 -10 -58 -48 -80 -56 -10 -3 -18 -11 -18 -17 0 -5 -5 -10
-11 -10 -6 0 -25 -11 -43 -25 -17 -14 -36 -29 -41 -34 -6 -4 -15 -10 -20 -12
-29 -13 -85 -52 -85 -60 0 -5 -5 -9 -11 -9 -6 0 -21 -8 -34 -17 -12 -10 -33
-25 -45 -33 -12 -8 -31 -23 -42 -32 -12 -10 -27 -18 -35 -18 -7 0 -16 -7 -19
-15 -4 -8 -10 -15 -15 -15 -13 0 -79 -47 -100 -71 -11 -12 -19 -28 -19 -36 0
-24 32 -114 58 -162 13 -25 38 -71 54 -101 16 -30 38 -68 48 -85 11 -16 25
-40 31 -52 7 -13 16 -23 21 -23 4 0 8 -6 8 -13 0 -7 9 -23 20 -35 11 -12 20
-26 20 -32 0 -6 7 -13 15 -16 8 -4 15 -12 15 -20 0 -7 6 -17 13 -21 6 -4 35
-35 62 -68 65 -77 216 -226 277 -273 27 -20 48 -40 48 -44 0 -4 4 -8 9 -8 6 0
52 -28 103 -62 119 -79 149 -98 171 -105 9 -3 17 -9 17 -14 0 -5 5 -9 11 -9 6
0 50 -18 97 -41 48 -22 96 -44 107 -49 82 -36 119 -50 129 -50 6 0 23 -6 38
-14 15 -8 42 -17 60 -21 18 -3 42 -10 53 -15 28 -12 139 -41 205 -52 30 -5 59
-13 65 -18 5 -4 53 -13 105 -20 52 -6 133 -16 180 -22 112 -15 662 -14 765 1
44 7 116 16 160 21 45 5 97 16 118 25 20 8 49 15 65 15 16 0 46 7 65 15 20 8
49 15 64 15 15 0 40 6 54 14 14 7 42 16 62 20 20 4 49 13 64 21 15 8 38 15 49
15 12 0 27 7 34 15 7 8 23 15 36 15 12 0 25 4 28 9 3 5 25 14 49 20 25 6 50
17 57 26 7 8 17 15 23 15 21 0 258 123 285 148 7 6 17 12 22 12 5 0 15 6 22
13 7 6 33 26 58 42 25 17 47 33 48 38 2 4 10 7 18 7 8 0 17 7 20 15 4 8 11 15
18 15 6 0 34 21 61 46 92 84 100 90 133 103 25 11 36 11 45 2 6 -6 18 -11 27
-11 9 0 26 -9 38 -20 12 -12 22 -18 22 -16 0 5 56 -29 85 -51 6 -5 30 -19 55
-32 25 -14 47 -27 50 -30 7 -8 53 -34 118 -66 28 -15 52 -30 52 -35 0 -5 14
-11 30 -15 17 -4 30 -11 30 -16 0 -5 5 -9 11 -9 11 0 89 -33 119 -51 8 -5 26
-14 40 -19 30 -12 84 -37 123 -56 16 -8 34 -14 42 -14 11 0 66 -21 130 -50 55
-25 302 -103 378 -120 104 -23 145 -32 192 -45 54 -15 261 -46 445 -67 138
-16 509 -15 641 0 110 13 239 29 361 43 48 5 99 16 115 24 15 8 43 15 61 15
18 0 49 7 69 15 19 8 49 15 65 15 16 0 44 6 62 14 18 7 52 17 75 21 24 4 55
13 69 21 15 8 39 14 54 14 14 0 39 7 55 15 39 20 93 42 123 50 31 8 97 33 130
50 14 7 40 16 58 20 17 3 32 11 32 15 0 5 16 12 35 16 19 3 35 10 35 15 0 5 5
9 11 9 6 0 67 28 136 63 170 85 177 89 183 98 3 4 18 11 33 14 15 4 27 11 27
16 0 5 5 9 10 9 6 0 33 16 60 35 27 19 54 35 59 35 5 0 16 6 23 13 21 19 76
57 84 57 3 0 16 8 29 18 12 9 33 24 45 32 40 27 245 182 255 194 6 6 43 38 84
71 41 33 104 88 139 123 35 34 65 62 67 62 9 0 115 111 115 120 0 5 7 10 15
10 8 0 15 4 15 8 0 5 21 31 48 58 63 66 146 163 151 177 2 7 10 17 16 22 20
17 181 229 188 248 3 9 11 17 17 17 5 0 10 6 11 13 0 6 20 39 45 72 24 33 49
72 55 88 6 15 14 27 19 27 4 0 10 8 14 18 7 22 43 84 53 91 10 8 51 86 143
271 97 197 101 206 157 355 8 22 21 51 28 65 7 14 16 40 20 58 4 18 13 45 21
60 8 15 14 34 14 43 0 9 7 30 15 45 8 16 15 39 15 51 0 12 6 37 14 55 17 41
34 103 50 188 8 36 18 83 23 105 10 39 32 159 53 300 7 39 16 115 22 170 12
115 15 661 5 750 -35 292 -50 387 -83 531 -8 33 -14 67 -14 75 0 8 -9 46 -21
84 -11 39 -27 95 -36 125 -8 30 -21 71 -28 90 -7 19 -24 71 -38 115 -42 131
-55 167 -96 256 -12 25 -21 50 -21 55 0 9 -53 125 -71 154 -4 8 -27 53 -50
100 -23 47 -45 92 -50 100 -5 8 -15 26 -21 40 -7 14 -15 27 -19 30 -3 3 -17
25 -30 50 -14 25 -38 65 -54 90 -42 64 -53 82 -64 108 -6 12 -15 22 -21 22 -5
0 -10 6 -10 13 0 8 -9 22 -20 32 -11 10 -20 24 -20 32 0 7 -7 16 -15 19 -8 4
-15 10 -15 15 0 11 -34 60 -66 96 -12 12 -34 42 -50 65 -16 24 -35 47 -41 51
-7 4 -13 12 -13 17 0 4 -18 27 -39 49 -22 23 -61 67 -88 99 -57 69 -362 372
-374 372 -4 0 -27 18 -51 41 -24 22 -56 50 -71 62 -16 12 -52 40 -80 62 -29
22 -56 45 -60 52 -4 7 -15 13 -22 13 -8 0 -15 4 -15 8 0 5 -12 15 -27 23 -15
8 -38 25 -52 38 -15 13 -35 27 -46 32 -19 8 -105 66 -132 89 -7 5 -15 10 -18
10 -3 0 -29 15 -58 34 -59 38 -116 71 -197 113 -30 15 -56 31 -58 36 -2 4 -8
7 -13 7 -10 0 -97 40 -129 60 -15 9 -84 40 -147 66 -18 8 -48 21 -65 29 -18 8
-62 24 -98 35 -36 12 -77 28 -92 36 -14 8 -32 14 -40 14 -7 0 -26 7 -41 15
-15 8 -45 17 -65 21 -20 4 -41 10 -47 14 -5 4 -26 11 -45 15 -70 14 -201 55
-275 86 -11 5 -38 13 -60 18 -72 18 -129 32 -180 46 -89 24 -179 44 -225 50
-25 3 -83 12 -130 20 -194 33 -357 45 -605 44 -158 -1 -281 -6 -335 -15z
m-3270 -1394 c251 -29 461 -77 597 -136 21 -9 53 -23 70 -31 119 -51 179 -79
203 -97 8 -7 35 -22 60 -36 25 -13 50 -29 56 -34 6 -6 22 -18 34 -26 131 -87
360 -284 360 -308 0 -7 4 -12 8 -12 4 0 26 -23 47 -52 22 -29 49 -62 60 -74
11 -12 27 -32 35 -44 8 -12 23 -33 33 -45 9 -13 17 -26 17 -30 0 -12 52 -75
63 -75 20 0 95 40 122 66 36 34 182 144 296 224 50 36 100 73 111 83 10 9 20
17 23 17 3 0 29 17 58 37 81 57 151 107 162 116 6 4 35 25 65 47 30 22 60 43
65 47 40 32 137 90 193 115 153 68 163 72 272 113 430 162 1012 202 1455 100
94 -22 275 -110 375 -182 267 -194 407 -413 441 -692 9 -79 9 -119 -1 -193
-14 -107 -56 -243 -90 -298 -6 -8 -14 -24 -19 -35 -28 -63 -151 -217 -235
-294 -21 -20 -63 -60 -93 -88 -30 -29 -56 -53 -59 -53 -5 0 -29 -18 -81 -60
-7 -6 -16 -10 -22 -10 -5 0 -11 -7 -15 -15 -3 -8 -12 -15 -19 -15 -8 0 -22 -9
-32 -20 -10 -11 -24 -20 -31 -20 -7 0 -14 -4 -16 -8 -2 -4 -25 -21 -53 -37
-27 -15 -52 -31 -55 -34 -3 -4 -16 -12 -30 -19 -55 -29 -85 -45 -90 -51 -6 -7
-11 -10 -135 -76 -132 -71 -139 -75 -148 -75 -5 0 -15 -7 -23 -15 -9 -8 -24
-15 -33 -15 -10 0 -24 -7 -31 -15 -7 -8 -16 -15 -21 -15 -9 0 -75 -30 -265
-122 -55 -26 -104 -48 -110 -48 -5 0 -38 -14 -74 -31 -36 -17 -83 -38 -105
-48 -22 -10 -61 -28 -86 -40 -25 -11 -51 -21 -58 -21 -6 0 -11 -4 -11 -9 0 -5
-16 -12 -35 -15 -19 -4 -35 -11 -35 -16 0 -5 -16 -12 -35 -16 -19 -3 -39 -12
-46 -20 -6 -8 -17 -14 -25 -14 -7 0 -43 -16 -81 -35 -37 -19 -73 -35 -79 -35
-6 0 -17 -7 -24 -15 -7 -8 -21 -15 -31 -15 -9 0 -24 -7 -33 -15 -8 -8 -19 -15
-24 -15 -14 0 -116 -53 -120 -62 -2 -5 -12 -8 -22 -8 -10 0 -25 -7 -33 -15 -8
-7 -26 -17 -41 -21 -14 -3 -26 -9 -26 -13 0 -3 -38 -26 -85 -50 -47 -25 -85
-48 -85 -52 0 -4 -13 -10 -30 -14 -16 -4 -30 -10 -30 -15 0 -9 -33 -30 -82
-52 -16 -7 -28 -16 -28 -20 0 -4 -6 -8 -13 -8 -8 0 -22 -9 -32 -20 -10 -11
-24 -20 -32 -20 -7 0 -16 -7 -19 -15 -4 -8 -12 -15 -19 -15 -7 0 -15 -7 -19
-15 -3 -8 -12 -15 -19 -15 -8 0 -22 -9 -32 -20 -10 -11 -22 -20 -26 -20 -5 0
-24 -15 -43 -32 -19 -18 -46 -42 -61 -53 -15 -11 -57 -48 -94 -83 -36 -35 -81
-75 -99 -89 -30 -24 -35 -25 -59 -12 -15 8 -47 33 -72 57 -25 23 -49 42 -53
42 -4 0 -15 8 -25 18 -29 29 -146 117 -165 125 -10 3 -18 11 -18 17 0 5 -5 10
-10 10 -6 0 -33 16 -60 35 -27 19 -54 35 -60 35 -5 0 -10 4 -10 10 0 5 -11 12
-25 16 -14 3 -29 11 -33 18 -4 6 -29 22 -57 36 -27 14 -52 28 -55 31 -6 7 -54
34 -92 51 -16 7 -28 16 -28 20 0 4 -5 8 -12 8 -7 0 -75 31 -153 69 -187 93
-371 179 -470 221 -27 12 -63 27 -80 35 -28 13 -63 28 -160 69 -22 10 -55 24
-72 32 -18 8 -50 21 -70 30 -21 9 -56 24 -78 34 -22 10 -56 25 -75 33 -19 9
-87 41 -152 71 -64 31 -121 56 -127 56 -6 0 -11 5 -11 10 0 6 -7 10 -15 10 -8
0 -32 9 -52 20 -21 11 -43 20 -50 20 -7 0 -13 4 -13 9 0 5 -16 15 -35 21 -19
6 -35 16 -35 21 0 5 -9 9 -19 9 -11 0 -26 7 -34 15 -8 7 -26 17 -41 21 -14 3
-28 10 -31 14 -3 5 -29 21 -58 35 -69 35 -108 57 -124 72 -7 6 -22 15 -33 18
-11 3 -20 11 -20 16 0 5 -9 9 -20 9 -11 0 -20 5 -20 10 0 6 -12 16 -27 23 -16
6 -32 17 -36 24 -4 7 -15 13 -22 13 -8 0 -15 3 -15 8 0 4 -23 21 -50 37 -27
17 -50 33 -50 37 0 4 -12 14 -27 22 -16 8 -47 33 -71 56 -24 22 -45 40 -47 40
-7 0 -148 145 -169 175 -11 14 -27 35 -35 45 -9 10 -23 28 -31 40 -8 12 -22
32 -31 44 -17 24 -70 130 -94 191 -22 55 -55 226 -55 285 0 58 24 182 52 268
72 225 275 446 538 586 100 53 250 116 335 141 33 9 80 23 105 31 25 7 97 22
160 33 99 17 170 26 370 44 96 10 231 5 380 -13z m6624 -1723 c204 -416 299
-828 299 -1292 0 -408 -68 -746 -228 -1136 -46 -111 -151 -319 -218 -429 -49
-81 -194 -279 -269 -369 -127 -150 -335 -352 -460 -445 -37 -28 -39 -28 -72
-12 -19 9 -39 16 -45 16 -6 0 -11 3 -11 8 -1 4 -37 32 -82 62 -44 30 -89 63
-99 73 -11 9 -24 17 -29 17 -6 0 -13 7 -16 15 -4 8 -12 15 -19 15 -6 0 -20 9
-30 20 -10 11 -31 20 -46 20 -25 0 -34 -11 -85 -97 -31 -54 -60 -100 -63 -103
-3 -3 -25 -31 -49 -62 -120 -162 -313 -318 -517 -419 -130 -63 -148 -71 -240
-98 -280 -81 -525 -100 -755 -58 -188 34 -206 39 -355 95 -50 18 -105 42 -125
54 -8 4 -26 14 -40 21 -14 7 -44 25 -67 40 -24 15 -45 27 -48 27 -6 0 -76 54
-129 100 -54 46 -116 110 -116 120 0 5 -9 14 -20 20 -11 6 -20 17 -20 25 0 7
-3 15 -8 17 -13 6 -79 111 -106 173 -15 33 -32 69 -37 80 -8 19 -20 63 -39
150 -12 53 -12 260 0 305 28 107 34 126 46 141 8 8 14 25 14 37 0 11 5 24 10
27 6 4 17 21 24 38 28 64 140 180 261 269 27 21 55 42 62 48 7 6 34 22 60 35
26 14 50 29 53 33 10 14 327 175 460 234 25 10 57 26 72 34 14 8 33 14 41 14
8 0 20 7 27 15 7 8 21 15 30 15 10 0 31 6 47 14 63 31 138 63 233 101 36 14
79 32 95 40 88 41 166 75 171 75 4 0 28 10 53 21 52 25 99 45 121 53 8 3 22
10 30 15 8 5 42 22 75 37 33 16 62 32 63 36 2 4 14 8 27 8 12 0 28 7 35 15 7
8 17 15 22 15 16 0 116 48 123 59 3 6 14 11 24 11 10 0 24 6 30 14 7 8 26 18
42 21 16 4 29 10 29 15 0 5 13 11 29 15 16 3 32 13 35 21 3 8 14 14 24 14 11
0 25 7 32 15 7 8 18 15 25 15 7 0 37 16 66 35 30 19 59 35 66 35 7 0 16 6 20
13 4 6 19 18 32 26 14 7 43 24 65 36 61 34 149 92 167 109 9 9 18 16 22 16 9
0 99 60 118 79 9 9 27 23 39 31 13 8 37 26 54 40 17 14 37 29 44 35 7 5 21 17
30 25 9 9 48 43 87 75 69 60 147 139 208 211 18 21 43 49 56 63 13 14 31 37
40 51 20 31 31 46 54 71 9 10 17 24 17 29 0 6 7 13 15 16 8 4 15 10 15 16 0 5
13 29 30 53 16 24 34 55 40 69 5 14 14 26 20 26 5 0 10 8 10 19 0 10 9 30 20
44 11 14 20 32 20 40 0 8 7 20 15 27 8 7 15 22 15 34 0 12 6 30 14 41 7 11 17
36 21 55 4 19 11 40 15 45 4 6 11 25 15 43 4 19 21 58 38 87 23 41 34 52 44
44 7 -6 46 -79 87 -162z"/>
</g>
</svg>